{
	"asset":{
		"generator":"Khronos glTF Blender I/O v3.5.30",
		"version":"2.0"
	},
	"scene":0,
	"scenes":[
		{
			"name":"Scene",
			"nodes":[
				0
			]
		}
	],
	"nodes":[
		{
			"mesh":0,
			"name":"Light",
			"translation":[
				9.809057235717773,
				0,
				-0.14785194396972656
			]
		}
	],
	"materials":[
		{
			"doubleSided":true,
			"name":"Mirror 02",
			"pbrMetallicRoughness":{
				"baseColorTexture":{
					"index":0
				},
				"metallicFactor":0,
				"roughnessFactor":0.6000000238418579
			}
		},
		{
			"doubleSided":true,
			"name":"Mirror 01",
			"pbrMetallicRoughness":{
				"baseColorTexture":{
					"index":1
				},
				"metallicFactor":0,
				"roughnessFactor":0.6000000238418579
			}
		},
		{
			"alphaMode":"BLEND",
			"doubleSided":true,
			"name":"Translucent Glass Blue",
			"pbrMetallicRoughness":{
				"baseColorFactor":[
					0.12743769586086273,
					0.3005438446998596,
					0.8468732833862305,
					0.5
				],
				"metallicFactor":0,
				"roughnessFactor":0.6000000238418579
			}
		}
	],
	"meshes":[
		{
			"name":"model 2",
			"primitives":[
				{
					"attributes":{
						"POSITION":0,
						"TEXCOORD_0":1,
						"NORMAL":2
					},
					"indices":3,
					"material":0
				},
				{
					"attributes":{
						"POSITION":4,
						"TEXCOORD_0":5,
						"NORMAL":6
					},
					"indices":7,
					"material":1
				},
				{
					"attributes":{
						"POSITION":8,
						"TEXCOORD_0":9,
						"NORMAL":10
					},
					"indices":11,
					"material":2
				}
			]
		}
	],
	"textures":[
		{
			"sampler":0,
			"source":0
		},
		{
			"sampler":0,
			"source":1
		}
	],
	"images":[
		{
			"bufferView":4,
			"mimeType":"image/jpeg",
			"name":"f13383f2fa5a4c7"
		},
		{
			"bufferView":9,
			"mimeType":"image/jpeg",
			"name":"22ad15b8c4f100f4"
		}
	],
	"accessors":[
		{
			"bufferView":0,
			"componentType":5126,
			"count":488,
			"max":[
				0.22266101837158203,
				0.22265680134296417,
				0.029533445835113525
			],
			"min":[
				-0.22266006469726562,
				-0.22265680134296417,
				-0.0017805993556976318
			],
			"type":"VEC3"
		},
		{
			"bufferView":1,
			"componentType":5126,
			"count":488,
			"type":"VEC2"
		},
		{
			"bufferView":2,
			"componentType":5126,
			"count":488,
			"type":"VEC3"
		},
		{
			"bufferView":3,
			"componentType":5123,
			"count":912,
			"type":"SCALAR"
		},
		{
			"bufferView":5,
			"componentType":5126,
			"count":523,
			"max":[
				0.18345165252685547,
				0.18384967744350433,
				0.029569871723651886
			],
			"min":[
				-0.18128681182861328,
				-0.18831713497638702,
				0.025219976902008057
			],
			"type":"VEC3"
		},
		{
			"bufferView":6,
			"componentType":5126,
			"count":523,
			"type":"VEC2"
		},
		{
			"bufferView":7,
			"componentType":5126,
			"count":523,
			"type":"VEC3"
		},
		{
			"bufferView":8,
			"componentType":5123,
			"count":753,
			"type":"SCALAR"
		},
		{
			"bufferView":10,
			"componentType":5126,
			"count":1128,
			"max":[
				0.1585063934326172,
				0.15748657286167145,
				0.08332990109920502
			],
			"min":[
				-0.16243934631347656,
				-0.16345445811748505,
				0.019112244248390198
			],
			"type":"VEC3"
		},
		{
			"bufferView":11,
			"componentType":5126,
			"count":1128,
			"type":"VEC2"
		},
		{
			"bufferView":12,
			"componentType":5126,
			"count":1128,
			"type":"VEC3"
		},
		{
			"bufferView":13,
			"componentType":5123,
			"count":1656,
			"type":"SCALAR"
		}
	],
	"bufferViews":[
		{
			"buffer":0,
			"byteLength":5856,
			"byteOffset":0,
			"target":34962
		},
		{
			"buffer":0,
			"byteLength":3904,
			"byteOffset":5856,
			"target":34962
		},
		{
			"buffer":0,
			"byteLength":5856,
			"byteOffset":9760,
			"target":34962
		},
		{
			"buffer":0,
			"byteLength":1824,
			"byteOffset":15616,
			"target":34963
		},
		{
			"buffer":0,
			"byteLength":10369,
			"byteOffset":17440
		},
		{
			"buffer":0,
			"byteLength":6276,
			"byteOffset":27812,
			"target":34962
		},
		{
			"buffer":0,
			"byteLength":4184,
			"byteOffset":34088,
			"target":34962
		},
		{
			"buffer":0,
			"byteLength":6276,
			"byteOffset":38272,
			"target":34962
		},
		{
			"buffer":0,
			"byteLength":1506,
			"byteOffset":44548,
			"target":34963
		},
		{
			"buffer":0,
			"byteLength":11324,
			"byteOffset":46056
		},
		{
			"buffer":0,
			"byteLength":13536,
			"byteOffset":57380,
			"target":34962
		},
		{
			"buffer":0,
			"byteLength":9024,
			"byteOffset":70916,
			"target":34962
		},
		{
			"buffer":0,
			"byteLength":13536,
			"byteOffset":79940,
			"target":34962
		},
		{
			"buffer":0,
			"byteLength":3312,
			"byteOffset":93476,
			"target":34963
		}
	],
	"samplers":[
		{
			"magFilter":9729,
			"minFilter":9987
		}
	],
	"buffers":[
		{
			"byteLength":96788,
			"uri":"data:application/octet-stream;base64,"
		}
	]
}
