{
	"asset":{
		"generator":"Khronos glTF Blender I/O v3.5.30",
		"version":"2.0"
	},
	"extensionsUsed":[
		"KHR_materials_clearcoat"
	],
	"scene":0,
	"scenes":[
		{
			"name":"Scene",
			"nodes":[
				0
			]
		}
	],
	"nodes":[
		{
			"mesh":0,
			"name":"RegularJet",
			"rotation":[
				0.7071068286895752,
				0,
				0,
				0.7071068286895752
			],
			"scale":[
				0.21739402413368225,
				0.21739402413368225,
				0.21739402413368225
			],
			"translation":[
				10.716843605041504,
				0,
				-0.14785189926624298
			]
		}
	],
	"materials":[
		{
			"doubleSided":true,
			"name":"Glossy",
			"pbrMetallicRoughness":{
				"baseColorFactor":[
					0.8000000715255737,
					0.7612459063529968,
					0.5952510237693787,
					1
				],
				"metallicFactor":0.6416666507720947,
				"roughnessFactor":0.23333331942558289
			}
		},
		{
			"doubleSided":true,
			"extensions":{
				"KHR_materials_clearcoat":{
					"clearcoatFactor":1,
					"clearcoatRoughnessFactor":0.2133333384990692
				}
			},
			"name":"White",
			"pbrMetallicRoughness":{
				"baseColorFactor":[
					0.8000000715255737,
					0.7299351692199707,
					0.5952510237693787,
					1
				],
				"metallicFactor":0,
				"roughnessFactor":0.2083333432674408
			}
		},
		{
			"doubleSided":true,
			"name":"Black",
			"pbrMetallicRoughness":{
				"baseColorFactor":[
					0.049548469483852386,
					0.04422391951084137,
					0.03032555803656578,
					1
				],
				"metallicFactor":0.10833331197500229,
				"roughnessFactor":0.5166666507720947
			}
		}
	],
	"meshes":[
		{
			"name":"Circle.002",
			"primitives":[
				{
					"attributes":{
						"POSITION":0,
						"TEXCOORD_0":1,
						"NORMAL":2
					},
					"indices":3,
					"material":0
				},
				{
					"attributes":{
						"POSITION":4,
						"TEXCOORD_0":5,
						"NORMAL":6
					},
					"indices":7,
					"material":1
				},
				{
					"attributes":{
						"POSITION":8,
						"TEXCOORD_0":9,
						"NORMAL":10
					},
					"indices":11,
					"material":2
				}
			]
		}
	],
	"accessors":[
		{
			"bufferView":0,
			"componentType":5126,
			"count":798,
			"max":[
				1.3337222337722778,
				0.690083384513855,
				1.3337222337722778
			],
			"min":[
				-1.3337222337722778,
				-0.4957975149154663,
				-1.3337222337722778
			],
			"type":"VEC3"
		},
		{
			"bufferView":1,
			"componentType":5126,
			"count":798,
			"type":"VEC2"
		},
		{
			"bufferView":2,
			"componentType":5126,
			"count":798,
			"type":"VEC3"
		},
		{
			"bufferView":3,
			"componentType":5123,
			"count":4224,
			"type":"SCALAR"
		},
		{
			"bufferView":4,
			"componentType":5126,
			"count":6565,
			"max":[
				1.3241314888000488,
				0.6801102161407471,
				1.3241314888000488
			],
			"min":[
				-1.3241314888000488,
				-1.9487996101379395,
				-1.3241314888000488
			],
			"type":"VEC3"
		},
		{
			"bufferView":5,
			"componentType":5126,
			"count":6565,
			"type":"VEC2"
		},
		{
			"bufferView":6,
			"componentType":5126,
			"count":6565,
			"type":"VEC3"
		},
		{
			"bufferView":7,
			"componentType":5123,
			"count":33588,
			"type":"SCALAR"
		},
		{
			"bufferView":8,
			"componentType":5126,
			"count":3198,
			"max":[
				0.8502371907234192,
				0.6459630727767944,
				0.8502371311187744
			],
			"min":[
				-0.850237250328064,
				0.039141446352005005,
				-0.8502373099327087
			],
			"type":"VEC3"
		},
		{
			"bufferView":9,
			"componentType":5126,
			"count":3198,
			"type":"VEC2"
		},
		{
			"bufferView":10,
			"componentType":5126,
			"count":3198,
			"type":"VEC3"
		},
		{
			"bufferView":11,
			"componentType":5123,
			"count":16308,
			"type":"SCALAR"
		}
	],
	"bufferViews":[
		{
			"buffer":0,
			"byteLength":9576,
			"byteOffset":0,
			"target":34962
		},
		{
			"buffer":0,
			"byteLength":6384,
			"byteOffset":9576,
			"target":34962
		},
		{
			"buffer":0,
			"byteLength":9576,
			"byteOffset":15960,
			"target":34962
		},
		{
			"buffer":0,
			"byteLength":8448,
			"byteOffset":25536,
			"target":34963
		},
		{
			"buffer":0,
			"byteLength":78780,
			"byteOffset":33984,
			"target":34962
		},
		{
			"buffer":0,
			"byteLength":52520,
			"byteOffset":112764,
			"target":34962
		},
		{
			"buffer":0,
			"byteLength":78780,
			"byteOffset":165284,
			"target":34962
		},
		{
			"buffer":0,
			"byteLength":67176,
			"byteOffset":244064,
			"target":34963
		},
		{
			"buffer":0,
			"byteLength":38376,
			"byteOffset":311240,
			"target":34962
		},
		{
			"buffer":0,
			"byteLength":25584,
			"byteOffset":349616,
			"target":34962
		},
		{
			"buffer":0,
			"byteLength":38376,
			"byteOffset":375200,
			"target":34962
		},
		{
			"buffer":0,
			"byteLength":32616,
			"byteOffset":413576,
			"target":34963
		}
	],
	"buffers":[
		{
			"byteLength":446192,
			"uri":"data:application/octet-stream;base64,"
		}
	]
}
