{
	"asset":{
		"generator":"Khronos glTF Blender I/O v3.5.30",
		"version":"2.0"
	},
	"extensionsUsed":[
		"KHR_materials_clearcoat"
	],
	"scene":0,
	"scenes":[
		{
			"name":"Scene",
			"nodes":[
				0,
				1
			]
		}
	],
	"nodes":[
		{
			"mesh":0,
			"name":"RegularJet",
			"rotation":[
				0.7071068286895752,
				0,
				0,
				0.7071068286895752
			],
			"scale":[
				0.21739402413368225,
				0.21739402413368225,
				0.21739402413368225
			],
			"translation":[
				10.716843605041504,
				0,
				-0.07550831884145737
			]
		},
		{
			"mesh":1,
			"name":"Mask",
			"rotation":[
				0.7071068286895752,
				0,
				0,
				0.7071067690849304
			],
			"scale":[
				0.18852689862251282,
				0.18852689862251282,
				0.18852689862251282
			],
			"translation":[
				10.716843605041504,
				0,
				-0.01392459124326706
			]
		}
	],
	"materials":[
		{
			"doubleSided":true,
			"name":"Glossy",
			"pbrMetallicRoughness":{
				"baseColorFactor":[
					0.8000000715255737,
					0.7612459063529968,
					0.5952510237693787,
					1
				],
				"metallicFactor":0.6416666507720947,
				"roughnessFactor":0.23333331942558289
			}
		},
		{
			"doubleSided":true,
			"extensions":{
				"KHR_materials_clearcoat":{
					"clearcoatFactor":1,
					"clearcoatRoughnessFactor":0.2133333384990692
				}
			},
			"name":"White",
			"pbrMetallicRoughness":{
				"baseColorFactor":[
					0.8000000715255737,
					0.7299351692199707,
					0.5952510237693787,
					1
				],
				"metallicFactor":0,
				"roughnessFactor":0.2083333432674408
			}
		},
		{
			"doubleSided":true,
			"name":"Black",
			"pbrMetallicRoughness":{
				"baseColorFactor":[
					0.049548469483852386,
					0.04422391951084137,
					0.03032555803656578,
					1
				],
				"metallicFactor":0.10833331197500229,
				"roughnessFactor":0.5166666507720947
			}
		}
	],
	"meshes":[
		{
			"name":"Circle.002",
			"primitives":[
				{
					"attributes":{
						"POSITION":0,
						"TEXCOORD_0":1,
						"NORMAL":2
					},
					"indices":3,
					"material":0
				},
				{
					"attributes":{
						"POSITION":4,
						"TEXCOORD_0":5,
						"NORMAL":6
					},
					"indices":7,
					"material":1
				},
				{
					"attributes":{
						"POSITION":8,
						"TEXCOORD_0":9,
						"NORMAL":10
					},
					"indices":11,
					"material":2
				}
			]
		},
		{
			"name":"Circle.001",
			"primitives":[
				{
					"attributes":{
						"POSITION":12,
						"TEXCOORD_0":13,
						"NORMAL":14
					},
					"indices":15
				}
			]
		}
	],
	"accessors":[
		{
			"bufferView":0,
			"componentType":5126,
			"count":798,
			"max":[
				1.3337222337722778,
				0.3573070764541626,
				1.3337222337722778
			],
			"min":[
				-1.3337222337722778,
				-0.8285738229751587,
				-1.3337222337722778
			],
			"type":"VEC3"
		},
		{
			"bufferView":1,
			"componentType":5126,
			"count":798,
			"type":"VEC2"
		},
		{
			"bufferView":2,
			"componentType":5126,
			"count":798,
			"type":"VEC3"
		},
		{
			"bufferView":3,
			"componentType":5123,
			"count":4224,
			"type":"SCALAR"
		},
		{
			"bufferView":4,
			"componentType":5126,
			"count":6557,
			"max":[
				1.3241314888000488,
				0.3473339378833771,
				1.3241314888000488
			],
			"min":[
				-1.3241314888000488,
				-2.281575918197632,
				-1.3241314888000488
			],
			"type":"VEC3"
		},
		{
			"bufferView":5,
			"componentType":5126,
			"count":6557,
			"type":"VEC2"
		},
		{
			"bufferView":6,
			"componentType":5126,
			"count":6557,
			"type":"VEC3"
		},
		{
			"bufferView":7,
			"componentType":5123,
			"count":33588,
			"type":"SCALAR"
		},
		{
			"bufferView":8,
			"componentType":5126,
			"count":3196,
			"max":[
				0.8502503037452698,
				0.25949203968048096,
				0.850250244140625
			],
			"min":[
				-0.8502503633499146,
				-0.4657270014286041,
				-0.8502504229545593
			],
			"type":"VEC3"
		},
		{
			"bufferView":9,
			"componentType":5126,
			"count":3196,
			"type":"VEC2"
		},
		{
			"bufferView":10,
			"componentType":5126,
			"count":3196,
			"type":"VEC3"
		},
		{
			"bufferView":11,
			"componentType":5123,
			"count":16308,
			"type":"SCALAR"
		},
		{
			"bufferView":12,
			"componentType":5126,
			"count":32,
			"max":[
				1,
				0,
				1
			],
			"min":[
				-1,
				0,
				-1
			],
			"type":"VEC3"
		},
		{
			"bufferView":13,
			"componentType":5126,
			"count":32,
			"type":"VEC2"
		},
		{
			"bufferView":14,
			"componentType":5126,
			"count":32,
			"type":"VEC3"
		},
		{
			"bufferView":15,
			"componentType":5123,
			"count":90,
			"type":"SCALAR"
		}
	],
	"bufferViews":[
		{
			"buffer":0,
			"byteLength":9576,
			"byteOffset":0,
			"target":34962
		},
		{
			"buffer":0,
			"byteLength":6384,
			"byteOffset":9576,
			"target":34962
		},
		{
			"buffer":0,
			"byteLength":9576,
			"byteOffset":15960,
			"target":34962
		},
		{
			"buffer":0,
			"byteLength":8448,
			"byteOffset":25536,
			"target":34963
		},
		{
			"buffer":0,
			"byteLength":78684,
			"byteOffset":33984,
			"target":34962
		},
		{
			"buffer":0,
			"byteLength":52456,
			"byteOffset":112668,
			"target":34962
		},
		{
			"buffer":0,
			"byteLength":78684,
			"byteOffset":165124,
			"target":34962
		},
		{
			"buffer":0,
			"byteLength":67176,
			"byteOffset":243808,
			"target":34963
		},
		{
			"buffer":0,
			"byteLength":38352,
			"byteOffset":310984,
			"target":34962
		},
		{
			"buffer":0,
			"byteLength":25568,
			"byteOffset":349336,
			"target":34962
		},
		{
			"buffer":0,
			"byteLength":38352,
			"byteOffset":374904,
			"target":34962
		},
		{
			"buffer":0,
			"byteLength":32616,
			"byteOffset":413256,
			"target":34963
		},
		{
			"buffer":0,
			"byteLength":384,
			"byteOffset":445872,
			"target":34962
		},
		{
			"buffer":0,
			"byteLength":256,
			"byteOffset":446256,
			"target":34962
		},
		{
			"buffer":0,
			"byteLength":384,
			"byteOffset":446512,
			"target":34962
		},
		{
			"buffer":0,
			"byteLength":180,
			"byteOffset":446896,
			"target":34963
		}
	],
	"buffers":[
		{
			"byteLength":447076,
			"uri":"data:application/octet-stream;base64,"
		}
	]
}
